<?xml version="1.0" encoding="utf-8"?>
<!-- Generator: Adobe Illustrator 16.0.4, SVG Export Plug-In . SVG Version: 6.00 Build 0)  -->
<!DOCTYPE svg PUBLIC "-//W3C//DTD SVG 1.1//EN" "http://www.w3.org/Graphics/SVG/1.1/DTD/svg11.dtd">
<svg version="1.1" id="Layer_1" xmlns="http://www.w3.org/2000/svg" xmlns:xlink="http://www.w3.org/1999/xlink" x="0px" y="0px"
	 width="171.596px" height="33.509px" viewBox="0 0 171.596 33.509" enable-background="new 0 0 171.596 33.509"
	 xml:space="preserve">
<g id="Group_74" transform="translate(-1.592 -259.171)">
	<g id="Group_5" transform="translate(1.592 259.171)">
		<g id="Group_4">
			<path id="Path_2" fill="#000000" d="M18.784,27.836v-7.055c-0.131-0.11-0.257-0.221-0.375-0.334
				c-0.595-0.544-1.079-1.195-1.429-1.921c-0.169-0.364-0.289-0.749-0.356-1.145c-0.079-0.468-0.079-0.946,0-1.415
				c0.067-0.396,0.188-0.78,0.356-1.144c0.349-0.726,0.833-1.378,1.428-1.921c0.118-0.113,0.244-0.225,0.375-0.334V6.047
				c0.014-0.988-0.776-1.801-1.766-1.814c-0.004,0-0.009,0-0.014,0c-1.001,0.003-1.812,0.813-1.815,1.814v16.601L3.352,5.068
				C2.83,4.23,1.728,3.974,0.89,4.496C0.876,4.505,0.862,4.514,0.847,4.524C0.252,4.91-0.071,5.599,0.012,6.303v21.824
				c0.02,0.988,0.826,1.78,1.815,1.779c0.982-0.001,1.779-0.798,1.78-1.78V12.003L15.482,29.07c0.336,0.516,0.908,0.829,1.524,0.835
				c0.35,0.011,0.693-0.092,0.98-0.291c0.6-0.379,0.914-1.079,0.801-1.779 M66.464,22.715c-0.02,1.909-1.541,3.464-3.449,3.522
				h-7.59v-7.153h7.408C64.803,19.166,66.382,20.745,66.464,22.715 M64.138,11.749c-0.032,2.06-1.716,3.71-3.776,3.7h-4.938v-7.3
				h4.938c2.035-0.048,3.724,1.561,3.776,3.595 M70.057,22.71c-0.024-2.7-1.531-5.17-3.922-6.427
				c2.504-3.111,2.013-7.664-1.1-10.168c-1.245-1.003-2.786-1.563-4.385-1.597h-7.008c-1.009-0.001-1.832,0.807-1.852,1.814v5.991
				c0.171,0.125,0.338,0.251,0.494,0.38c0.074,0.062,0.147,0.124,0.219,0.188c0.143,0.126,0.275,0.253,0.399,0.383
				c1.871,1.612,2.081,4.436,0.469,6.307c-0.145,0.168-0.301,0.324-0.469,0.468c-0.127,0.129-0.262,0.258-0.399,0.384
				c-0.072,0.062-0.145,0.125-0.219,0.187c-0.156,0.129-0.323,0.256-0.494,0.38v7.048c-0.009,0.994,0.791,1.807,1.784,1.815
				c0.011,0,0.021,0,0.03,0h9.66C67.047,29.611,70.001,26.499,70.057,22.71 M75.83,26.16v-7.154h8.277
				c1.003-0.023,1.797-0.854,1.773-1.857c-0.022-0.97-0.804-1.751-1.773-1.773H75.83v-7.3h10.856
				c1.003,0.023,1.835-0.771,1.858-1.773c0.023-1.002-0.771-1.834-1.773-1.857c-0.028-0.001-0.057-0.001-0.085,0H74.014
				c-0.994-0.009-1.807,0.791-1.814,1.785c-0.001,0.01-0.001,0.021,0,0.03v21.715c-0.01,0.994,0.789,1.807,1.783,1.815
				c0.011,0,0.021,0,0.031,0h12.673c1.003,0.023,1.835-0.771,1.858-1.773c0.023-1.002-0.771-1.834-1.773-1.857
				c-0.028-0.001-0.057-0.001-0.085,0L75.83,26.16z M105.061,26.196H94.24v-19.9c-0.003-1.001-0.814-1.812-1.816-1.814
				c-0.994-0.009-1.807,0.791-1.815,1.784c0,0.011,0,0.021,0,0.03v21.722c-0.008,0.994,0.791,1.807,1.785,1.814
				c0.01,0,0.021,0,0.03,0h12.637c1.003,0.023,1.835-0.771,1.858-1.773c0.023-1.002-0.771-1.834-1.773-1.857
				c-0.028-0.001-0.057-0.001-0.085,0 M121.838,9.934V6.048c-0.02-0.988-0.827-1.78-1.816-1.778
				c-0.981,0.001-1.777,0.797-1.778,1.778v3.887c0,3.048-2.472,5.52-5.52,5.52c-3.049,0-5.52-2.472-5.52-5.52V6.048
				c-0.019-0.989-0.827-1.78-1.816-1.778c-0.982,0.001-1.778,0.797-1.779,1.778v3.887c0,4.334,3.053,8.069,7.301,8.933v9.042
				c-0.053,0.993,0.71,1.84,1.702,1.893c0.993,0.052,1.84-0.71,1.893-1.703c0.003-0.062,0.003-0.126,0-0.189v-9.042
				C118.759,18.007,121.823,14.275,121.838,9.934 M142.428,20.719V6.484c0-0.994-0.806-1.8-1.8-1.8s-1.8,0.806-1.8,1.8v14.234
				c0,3.049-2.472,5.52-5.52,5.52c-3.049,0-5.52-2.471-5.52-5.52l0,0V6.484c0.052-0.993-0.71-1.84-1.703-1.893
				c-0.992-0.053-1.84,0.71-1.893,1.703c-0.003,0.062-0.003,0.126,0,0.189v14.234c0,5.034,4.081,9.115,9.115,9.115
				c5.033,0,9.114-4.081,9.114-9.115l0,0 M170.923,27.619l-4.43-21.788c-0.182-0.987-1.13-1.641-2.117-1.459
				c-0.662,0.121-1.203,0.599-1.405,1.241l-6.1,16.558l-5.883-16.521c-0.312-0.968-1.351-1.498-2.318-1.185
				c-0.638,0.207-1.113,0.744-1.24,1.402l-3.668,21.823c-0.171,0.982,0.487,1.918,1.471,2.088c0.982,0.171,1.918-0.487,2.088-1.47
				l2.724-14.601l5.048,14.779c0.256,0.748,0.953,1.256,1.744,1.271c0.795,0,1.5-0.514,1.743-1.271l5.699-15.324l3.088,15.144
				c0.17,0.852,0.909,1.471,1.778,1.488c0.109,0,0.254-0.037,0.363-0.037c0.974-0.213,1.602-1.162,1.416-2.142"/>
		</g>
	</g>
	<g id="Group_7" transform="translate(37.007 283.872)">
		<g id="Group_6">
			
				<linearGradient id="Rectangle_6_1_" gradientUnits="userSpaceOnUse" x1="4552.7896" y1="21.4999" x2="4553.7739" y2="21.4999" gradientTransform="matrix(0.068 0 0 -1 -309.5893 21.5077)">
				<stop  offset="0" style="stop-color:#0060AF"/>
				<stop  offset="0.016" style="stop-color:#0060AF"/>
				<stop  offset="0.293" style="stop-color:#006DBC"/>
				<stop  offset="0.814" style="stop-color:#0092DF"/>
				<stop  offset="1" style="stop-color:#00A1ED"/>
			</linearGradient>
			<polygon id="Rectangle_6" fill="#000000" points="0,0.008 0.068,0.008 0.068,0.008 			"/>
		</g>
	</g>
	<g id="Group_9" transform="translate(18.456 269.716)">
		<g>
			<defs>
				<path id="SVGID_1_" d="M6.086,0.101c-0.083,0.03-0.165,0.062-0.247,0.1C5.721,0.247,5.605,0.294,5.491,0.341
					c-0.229,0.096-0.45,0.193-0.666,0.293C4.502,0.785,4.195,0.94,3.903,1.1C3.709,1.207,3.52,1.315,3.339,1.425
					C3.158,1.537,2.984,1.649,2.818,1.764c-0.167,0.114-0.326,0.23-0.479,0.35C2.11,2.292,1.898,2.473,1.701,2.66
					C1.154,3.16,0.709,3.76,0.387,4.427C0.325,4.564,0.269,4.703,0.22,4.843C0.149,5.051,0.095,5.264,0.059,5.481
					c-0.072,0.43-0.072,0.869,0,1.3c0.036,0.216,0.09,0.43,0.161,0.637c0.048,0.141,0.1,0.279,0.167,0.416
					c0.321,0.668,0.767,1.268,1.313,1.769c0.2,0.187,0.413,0.368,0.639,0.546c0.152,0.118,0.312,0.235,0.479,0.35
					c0.167,0.115,0.341,0.228,0.521,0.338c0.181,0.111,0.369,0.221,0.563,0.326c0.292,0.16,0.6,0.315,0.922,0.465
					c0.216,0.101,0.438,0.198,0.666,0.293c0.114,0.048,0.23,0.096,0.349,0.143c0.163,0.063,0.329,0.127,0.5,0.188
					c0.162-0.708,0.356-1.435,0.584-2.177l-0.257-0.1C6.178,9.782,5.7,9.566,5.233,9.326C5.16,9.289,5.088,9.251,5.018,9.213
					C4.877,9.135,4.741,9.059,4.61,8.981S4.353,8.824,4.232,8.745s-0.237-0.16-0.347-0.242C3.775,8.421,3.669,8.34,3.569,8.258
					c-0.1-0.081-0.2-0.165-0.285-0.247C3.038,7.787,2.818,7.534,2.631,7.258c-0.08-0.12-0.15-0.247-0.209-0.379
					C2.394,6.816,2.369,6.754,2.347,6.69c-0.129-0.363-0.129-0.76,0-1.122c0.021-0.063,0.046-0.126,0.075-0.189
					C2.481,5.247,2.551,5.12,2.631,5C2.818,4.723,3.038,4.47,3.284,4.246c0.089-0.083,0.185-0.165,0.285-0.247
					C3.64,3.94,3.715,3.882,3.793,3.824C3.855,3.777,3.919,3.73,3.985,3.683C4.051,3.635,4.148,3.57,4.233,3.512
					c0.16-0.104,0.328-0.208,0.5-0.31l0.148-0.084C4.994,3.055,5.109,2.993,5.229,2.93c0.12-0.062,0.224-0.112,0.34-0.169
					c0.146-0.07,0.298-0.141,0.453-0.21c0.206-0.091,0.42-0.181,0.641-0.268l0.257-0.1C6.691,1.443,6.497,0.717,6.335,0.008
					C6.252,0.039,6.168,0.069,6.086,0.101"/>
			</defs>
			<clipPath id="SVGID_2_">
				<use xlink:href="#SVGID_1_"  overflow="visible"/>
			</clipPath>
			<g id="Group_8" clip-path="url(#SVGID_2_)">
				
					<linearGradient id="Rectangle_7_1_" gradientUnits="userSpaceOnUse" x1="30.0542" y1="287.2097" x2="30.0792" y2="287.2097" gradientTransform="matrix(6.916 0 0 -12.242 2096.6724 3522.1421)">
					<stop  offset="0" style="stop-color:#0060AF"/>
					<stop  offset="0.016" style="stop-color:#0060AF"/>
					<stop  offset="0.293" style="stop-color:#006DBC"/>
					<stop  offset="0.814" style="stop-color:#0092DF"/>
					<stop  offset="1" style="stop-color:#00A1ED"/>
				</linearGradient>
				<path id="Rectangle_7" fill="#000000" d="M0,0.008h6.916V12.25H0V0.008z"/>
			</g>
		</g>
	</g>
	<g id="Group_11" transform="translate(32.566 283.647)">
		<g id="Group_10">
			
				<linearGradient id="Rectangle_8_1_" gradientUnits="userSpaceOnUse" x1="-30.9191" y1="21.7249" x2="-30.9191" y2="21.7249" gradientTransform="matrix(1 0 0 -1 30.9189 21.7331)">
				<stop  offset="0" style="stop-color:#0060AF"/>
				<stop  offset="0.016" style="stop-color:#0060AF"/>
				<stop  offset="0.293" style="stop-color:#006DBC"/>
				<stop  offset="0.814" style="stop-color:#0092DF"/>
				<stop  offset="1" style="stop-color:#00A1ED"/>
			</linearGradient>
			<polygon id="Rectangle_8" fill="#000000" points="0,0.008 0,0.008 0,0.008 			"/>
		</g>
	</g>
	<g id="Group_13" transform="translate(37.925 259.171)">
		<g>
			<defs>
				<path id="SVGID_3_" d="M6.333,0.008c-0.156,0-0.315,0.008-0.477,0.024C5.608,0.056,5.361,0.095,5.116,0.15
					c-0.169,0.037-0.34,0.081-0.513,0.132S4.257,0.391,4.08,0.458c-0.371,0.139-0.733,0.299-1.085,0.48
					C2.895,0.991,2.786,1.046,2.682,1.103c-0.21,0.114-0.422,0.238-0.636,0.37C1.939,1.541,1.831,1.609,1.723,1.679
					C1.29,1.964,0.852,2.282,0.406,2.636C0.271,2.743,0.135,2.854,0,2.967c0.533,0.494,1.064,1.025,1.593,1.595L1.8,4.392
					C2.21,4.065,2.637,3.76,3.078,3.474c0.138-0.088,0.274-0.172,0.408-0.251C3.622,3.145,3.755,3.07,3.887,3l0.2-0.1
					c0.13-0.067,0.257-0.127,0.382-0.181c0.189-0.083,0.372-0.154,0.55-0.216c0.06-0.021,0.118-0.04,0.177-0.058
					c0.318-0.102,0.647-0.165,0.98-0.189c0.098-0.005,0.195-0.005,0.293,0C6.561,2.261,6.653,2.27,6.743,2.286
					c0.044,0.007,0.087,0.016,0.13,0.026c0.062,0.015,0.125,0.032,0.186,0.054c0.06,0.021,0.117,0.045,0.174,0.072
					c0.038,0.018,0.075,0.036,0.11,0.057c0.053,0.03,0.104,0.063,0.152,0.1C7.571,2.65,7.641,2.712,7.707,2.778
					c0.068,0.07,0.132,0.145,0.189,0.224c0.027,0.037,0.055,0.076,0.079,0.116c0.052,0.079,0.1,0.161,0.144,0.245
					c0.025,0.051,0.051,0.1,0.074,0.159l0.04,0.092C8.268,3.695,8.299,3.78,8.329,3.868l0.024,0.077
					c0.034,0.107,0.065,0.22,0.093,0.337C8.489,4.456,8.523,4.64,8.547,4.835C8.56,4.927,8.572,5.021,8.582,5.118v0.028L8.604,5.39
					c0.017,0.23,0.025,0.471,0.025,0.723c-0.006,0.802-0.076,1.602-0.21,2.393c0.753,0.172,1.477,0.366,2.173,0.581
					c0.179-0.981,0.272-1.977,0.281-2.974c0.004-0.646-0.05-1.292-0.161-1.929c-0.034-0.187-0.073-0.366-0.117-0.536
					c-0.019-0.076-0.04-0.151-0.06-0.224c-0.042-0.146-0.088-0.284-0.137-0.418c-0.023-0.066-0.049-0.132-0.073-0.194
					c-0.052-0.129-0.105-0.248-0.161-0.364c-0.08-0.166-0.169-0.327-0.268-0.483c-0.089-0.143-0.186-0.28-0.29-0.413
					C9.54,1.468,9.472,1.387,9.408,1.313C9.342,1.238,9.269,1.167,9.198,1.1c-0.07-0.065-0.14-0.128-0.211-0.186
					C8.822,0.779,8.646,0.657,8.461,0.55C8.354,0.489,8.245,0.433,8.134,0.383c-0.087-0.04-0.175-0.078-0.265-0.11
					c-0.068-0.026-0.137-0.05-0.206-0.071c-0.141-0.044-0.282-0.08-0.427-0.108C7.156,0.077,7.074,0.064,6.99,0.053
					C6.785,0.025,6.579,0.011,6.373,0.01L6.333,0.008z"/>
			</defs>
			<clipPath id="SVGID_4_">
				<use xlink:href="#SVGID_3_"  overflow="visible"/>
			</clipPath>
			<g id="Group_12" clip-path="url(#SVGID_4_)">
				
					<linearGradient id="Rectangle_9_1_" gradientUnits="userSpaceOnUse" x1="-128.1687" y1="289.9324" x2="-128.1527" y2="289.9324" gradientTransform="matrix(10.875 0 0 -9.076 3700.2507 2635.9766)">
					<stop  offset="0" style="stop-color:#0060AF"/>
					<stop  offset="0.016" style="stop-color:#0060AF"/>
					<stop  offset="0.293" style="stop-color:#006DBC"/>
					<stop  offset="0.814" style="stop-color:#0092DF"/>
					<stop  offset="1" style="stop-color:#00A1ED"/>
				</linearGradient>
				<path id="Rectangle_9" fill="#000000" d="M0,0.008h10.875v9.076H0V0.008z"/>
			</g>
		</g>
	</g>
	<g id="Group_15" transform="translate(33.472 283.427)">
		<g>
			<defs>
				<path id="SVGID_5_" d="M12.874,0.589c0.134,0.791,0.204,1.592,0.21,2.394c0,0.26-0.01,0.51-0.028,0.747l-0.02,0.232
					c-0.012,0.101-0.023,0.2-0.037,0.301c-0.026,0.185-0.061,0.361-0.101,0.528l-0.013,0.058c-0.029,0.118-0.061,0.232-0.1,0.342
					c-0.039,0.108-0.081,0.231-0.127,0.339c-0.031,0.071-0.063,0.139-0.101,0.205l-0.052,0.1c-0.029,0.053-0.06,0.101-0.091,0.149
					s-0.052,0.078-0.079,0.115c-0.058,0.078-0.121,0.153-0.19,0.224c-0.065,0.066-0.137,0.128-0.212,0.184
					c-0.048,0.037-0.099,0.07-0.151,0.101c-0.187,0.105-0.39,0.176-0.601,0.21c-0.091,0.015-0.182,0.023-0.273,0.027h-0.146
					c-0.045,0-0.1,0-0.147-0.005s-0.101-0.007-0.154-0.013C10.241,6.801,10.023,6.759,9.809,6.7C9.296,6.553,8.801,6.35,8.332,6.094
					C8.2,6.025,8.067,5.951,7.932,5.872S7.661,5.709,7.523,5.621C7.082,5.337,6.655,5.03,6.245,4.703
					C6.176,4.649,6.107,4.591,6.038,4.535c-0.15-0.123-0.302-0.25-0.452-0.38c-0.134-0.114-0.267-0.232-0.4-0.353
					c-0.399-0.363-0.8-0.75-1.199-1.161l-0.4-0.418L3.481,2.11C3.321,1.935,3.161,1.757,3.002,1.576L2.661,1.571
					c-0.906-0.019-1.8-0.062-2.679-0.13c0.274,0.352,0.551,0.694,0.83,1.027l0.216,0.254l0.215,0.249
					c0.032,0.036,0.064,0.074,0.1,0.111c0.088,0.101,0.177,0.201,0.265,0.3c0.13,0.144,0.26,0.283,0.389,0.424
					c0.048,0.051,0.1,0.1,0.146,0.155C2.32,4.15,2.499,4.336,2.679,4.516C2.815,4.652,2.95,4.784,3.086,4.916
					c0.167,0.162,0.333,0.32,0.5,0.475l0.147,0.134l0.055,0.048c0.157,0.142,0.314,0.279,0.473,0.414
					c0.059,0.05,0.116,0.1,0.174,0.146C4.57,6.246,4.706,6.357,4.841,6.464l0.066,0.052c0.15,0.118,0.3,0.233,0.45,0.344
					c0.151,0.109,0.307,0.223,0.457,0.327l0.389,0.261c0.168,0.109,0.335,0.213,0.5,0.312c0.092,0.056,0.184,0.108,0.275,0.16
					c0.184,0.101,0.365,0.2,0.544,0.289c0.09,0.045,0.179,0.088,0.269,0.13c0.126,0.059,0.251,0.114,0.376,0.166
					c0.206,0.086,0.41,0.164,0.611,0.231c0.087,0.03,0.174,0.057,0.26,0.083c0.1,0.031,0.206,0.058,0.307,0.083
					c0.154,0.038,0.306,0.072,0.455,0.1c0.166,0.03,0.33,0.053,0.491,0.067s0.317,0.022,0.47,0.023h0.006
					c0.078,0,0.156,0,0.233-0.005c0.226-0.009,0.45-0.035,0.672-0.079c0.431-0.083,0.844-0.238,1.224-0.457
					c0.101-0.06,0.208-0.127,0.314-0.199l0.105-0.078c0.11-0.085,0.217-0.175,0.317-0.271c0.229-0.217,0.433-0.458,0.608-0.719
					c0.135-0.2,0.256-0.41,0.36-0.628c0.151-0.314,0.274-0.642,0.37-0.978c0.038-0.133,0.073-0.27,0.105-0.41l0.019-0.086
					c0.071-0.335,0.124-0.673,0.157-1.014c0.037-0.365,0.057-0.757,0.057-1.178c-0.008-0.998-0.103-1.992-0.28-2.974
					c-0.695,0.215-1.419,0.408-2.174,0.58"/>
			</defs>
			<clipPath id="SVGID_6_">
				<use xlink:href="#SVGID_5_"  overflow="visible"/>
			</clipPath>
			<g id="Group_14" clip-path="url(#SVGID_6_)">
				
					<linearGradient id="Rectangle_10_1_" gradientUnits="userSpaceOnUse" x1="-193.2025" y1="265.6774" x2="-193.1905" y2="265.6774" gradientTransform="matrix(15.328 0 0 -9.076 5284.2134 2415.8311)">
					<stop  offset="0" style="stop-color:#0060AF"/>
					<stop  offset="0.016" style="stop-color:#0060AF"/>
					<stop  offset="0.293" style="stop-color:#006DBC"/>
					<stop  offset="0.814" style="stop-color:#0092DF"/>
					<stop  offset="1" style="stop-color:#00A1ED"/>
				</linearGradient>
				<path id="Rectangle_10" fill="#000000" d="M0,0.007h15.328v9.076H0V0.007z"/>
			</g>
		</g>
	</g>
	<g id="Group_17" transform="translate(25.35 259.171)">
		<g>
			<defs>
				<path id="SVGID_7_" d="M4.501,0.008c-0.1,0-0.205,0-0.3,0.011c-0.096,0.01-0.228,0.019-0.338,0.035
					c-0.074,0.011-0.147,0.023-0.22,0.037C3.5,0.119,3.357,0.155,3.218,0.199c-0.278,0.086-0.547,0.203-0.8,0.349
					C2.233,0.655,2.057,0.777,1.892,0.913C1.821,0.97,1.75,1.033,1.68,1.098C1.61,1.165,1.541,1.235,1.472,1.311
					c-0.068,0.075-0.136,0.153-0.2,0.238C1.208,1.635,1.14,1.722,1.072,1.818C0.972,1.966,0.88,2.119,0.797,2.277
					c-0.029,0.054-0.058,0.11-0.086,0.169C0.56,2.761,0.437,3.088,0.341,3.423c-0.04,0.137-0.076,0.278-0.108,0.426L0.169,4.149
					c-0.01,0.052-0.019,0.1-0.028,0.156C0.045,4.901-0.002,5.503,0.002,6.106c0,0.278,0.009,0.564,0.027,0.856
					c0.027,0.488,0.08,0.994,0.156,1.518c0.029,0.199,0.062,0.399,0.101,0.6c0.066,0.362,0.14,0.731,0.22,1.107v0.016
					c0.066,0.295,0.139,0.596,0.216,0.9s0.162,0.609,0.253,0.915c0.034,0.113,0.069,0.229,0.101,0.344
					c0.106,0.35,0.221,0.7,0.343,1.059v0.007c0.107,0.312,0.22,0.628,0.338,0.944c0.06,0.159,0.12,0.319,0.183,0.48
					c0.057,0.144,0.114,0.287,0.173,0.432c0.378-0.8,0.785-1.592,1.223-2.383l0.165-0.3c-0.075-0.223-0.149-0.444-0.218-0.663
					L3.23,11.774c-0.057-0.187-0.112-0.371-0.164-0.556c-0.158-0.55-0.295-1.088-0.409-1.613C2.575,9.229,2.506,8.862,2.448,8.505
					C2.407,8.254,2.372,8.007,2.342,7.762c-0.01-0.081-0.019-0.161-0.027-0.241C2.29,7.275,2.271,7.036,2.257,6.801
					C2.251,6.682,2.246,6.567,2.243,6.452s0-0.229,0-0.341c0-0.252,0.008-0.492,0.024-0.723C2.275,5.305,2.281,5.223,2.29,5.144
					V5.116c0.023-0.226,0.058-0.438,0.1-0.641c0.014-0.066,0.028-0.133,0.043-0.199c0.028-0.117,0.061-0.229,0.094-0.337l0.066-0.2
					l0.053-0.135c0.019-0.045,0.026-0.062,0.04-0.093c0.025-0.054,0.05-0.106,0.075-0.159c0.045-0.086,0.092-0.168,0.144-0.244
					c0.037-0.058,0.073-0.11,0.112-0.16c0.049-0.063,0.102-0.123,0.157-0.181C3.239,2.701,3.31,2.64,3.385,2.585
					c0.049-0.036,0.1-0.069,0.152-0.1c0.046-0.027,0.095-0.052,0.144-0.073c0.104-0.047,0.214-0.084,0.325-0.11
					c0.087-0.021,0.176-0.035,0.265-0.045c0.048,0,0.095-0.008,0.143-0.01c0.097-0.005,0.193-0.005,0.29,0
					C5.435,2.32,6.146,2.539,6.792,2.889l0.2,0.101c0.263,0.139,0.533,0.298,0.809,0.475c0.138,0.088,0.277,0.182,0.418,0.279
					s0.283,0.2,0.426,0.306l0.217,0.163l0.218,0.17l0.207,0.168c0.283,0.231,0.566,0.476,0.85,0.733
					c0.267,0.241,0.533,0.494,0.8,0.758s0.531,0.538,0.794,0.822c0.2,0.21,0.392,0.425,0.584,0.646l0.167,0.192
					c0.268,0.308,0.531,0.625,0.791,0.952c0.313,0.39,0.622,0.791,0.928,1.205c0.101,0.139,0.201,0.277,0.3,0.418
					c0.169,0.235,0.335,0.474,0.5,0.717c0.22,0.32,0.436,0.646,0.648,0.977l0.139,0.217c0.177,0.28,0.353,0.562,0.525,0.85
					c0.146,0.24,0.289,0.483,0.431,0.729c0.311,0.538,0.606,1.077,0.889,1.618c0.222,0.427,0.436,0.853,0.64,1.278
					c0.267,0.553,0.516,1.103,0.746,1.648c0.128,0.3,0.25,0.6,0.367,0.9l0.049,0.126c0.101,0.254,0.2,0.508,0.287,0.76
					c0.048,0.134,0.101,0.267,0.143,0.4l0.249-0.057c0.668-0.157,1.308-0.332,1.917-0.528c-0.209-0.611-0.441-1.231-0.694-1.855
					c-0.186-0.461-0.383-0.924-0.592-1.39c-0.4-0.889-0.835-1.782-1.309-2.671c-0.229-0.431-0.467-0.859-0.713-1.287l-0.034-0.06
					l-0.033-0.06c-0.248-0.428-0.502-0.85-0.761-1.264c-0.149-0.24-0.3-0.478-0.453-0.713c-0.133-0.203-0.267-0.405-0.399-0.605
					c-0.163-0.242-0.327-0.48-0.493-0.716c-0.1-0.147-0.206-0.291-0.31-0.436c-0.231-0.32-0.465-0.634-0.7-0.941L15.33,7.649
					c-0.348-0.445-0.698-0.876-1.053-1.29L14.071,6.12c-0.068-0.079-0.159-0.182-0.239-0.271c-0.17-0.191-0.341-0.379-0.512-0.562
					l-0.146-0.157c-0.089-0.094-0.178-0.188-0.268-0.28l-0.27-0.273c-0.133-0.134-0.266-0.266-0.399-0.395
					c-0.17-0.163-0.339-0.322-0.509-0.478l-0.17-0.156c-0.1-0.093-0.206-0.183-0.309-0.273c-0.123-0.106-0.246-0.212-0.37-0.314
					c-0.124-0.104-0.271-0.224-0.406-0.331c-0.247-0.2-0.493-0.386-0.736-0.558C9.493,1.897,9.251,1.734,9.012,1.579
					C8.881,1.496,8.751,1.416,8.621,1.338c-0.154-0.092-0.308-0.18-0.458-0.262C8.069,1.025,7.977,0.975,7.884,0.929
					C7.7,0.835,7.516,0.748,7.336,0.668S6.976,0.514,6.799,0.45C6.622,0.385,6.447,0.325,6.274,0.274
					C6.023,0.199,5.769,0.137,5.512,0.091c-0.166-0.029-0.33-0.052-0.491-0.066C4.86,0.009,4.701,0.001,4.545,0L4.501,0.008z"/>
			</defs>
			<clipPath id="SVGID_8_">
				<use xlink:href="#SVGID_7_"  overflow="visible"/>
			</clipPath>
			<g id="Group_16" clip-path="url(#SVGID_8_)">
				
					<linearGradient id="Rectangle_11_1_" gradientUnits="userSpaceOnUse" x1="-237.0288" y1="306.784" x2="-237.0208" y2="306.784" gradientTransform="matrix(22.025 0 0 -20.497 7560.3228 6298.4014)">
					<stop  offset="0" style="stop-color:#0060AF"/>
					<stop  offset="0.016" style="stop-color:#0060AF"/>
					<stop  offset="0.293" style="stop-color:#006DBC"/>
					<stop  offset="0.814" style="stop-color:#0092DF"/>
					<stop  offset="1" style="stop-color:#00A1ED"/>
				</linearGradient>
				<path id="Rectangle_11" fill="#000000" d="M0,0.008h22.025v20.497H0V0.008z"/>
			</g>
		</g>
	</g>
	<g id="Group_19" transform="translate(25.35 265.29)">
		<g>
			<defs>
				<path id="SVGID_9_" d="M8.122,1.537C8.053,1.626,7.983,1.714,7.915,1.804L7.66,2.141C7.554,2.282,7.449,2.425,7.344,2.569
					L7.216,2.745c-0.1,0.145-0.207,0.289-0.311,0.436c-0.115,0.164-0.229,0.33-0.344,0.5c-0.34,0.5-0.674,1.014-1,1.539
					c-0.258,0.414-0.511,0.836-0.76,1.265L4.768,6.543c-0.012,0.019-0.021,0.04-0.033,0.06C4.653,6.745,4.571,6.886,4.492,7.029
					c-0.079,0.143-0.16,0.287-0.238,0.43L4.021,7.891C3.929,8.061,3.839,8.235,3.75,8.407C3.483,8.924,3.23,9.44,2.988,9.958
					c-0.095,0.2-0.187,0.4-0.276,0.6l-0.164,0.37c-0.142,0.324-0.277,0.647-0.409,0.97L2.12,11.948
					c-0.253,0.624-0.485,1.244-0.694,1.854c-0.123,0.358-0.238,0.715-0.346,1.068L0.98,15.214c-0.09,0.308-0.174,0.613-0.253,0.915
					c-0.078,0.302-0.15,0.602-0.216,0.9v0.016c-0.083,0.376-0.156,0.745-0.22,1.107l-0.051,0.3c-0.018,0.1-0.032,0.2-0.046,0.3
					c-0.076,0.522-0.13,1.029-0.157,1.517c-0.019,0.293-0.027,0.579-0.027,0.857c-0.004,0.603,0.043,1.205,0.14,1.8l0.027,0.157
					c0.02,0.1,0.04,0.2,0.063,0.3c0.032,0.148,0.068,0.29,0.108,0.426c0.096,0.336,0.22,0.663,0.37,0.978l0.086,0.169
					c0.084,0.157,0.176,0.311,0.275,0.458c0.12,0.179,0.254,0.348,0.399,0.507c0.069,0.075,0.14,0.145,0.208,0.212
					c0.106,0.1,0.213,0.189,0.318,0.27l0.106,0.078c0.105,0.076,0.211,0.143,0.314,0.2c0.38,0.219,0.794,0.374,1.225,0.457
					c0.221,0.044,0.445,0.07,0.671,0.079c0.077,0,0.153,0.005,0.232,0.005h0.006c0.154,0,0.312-0.008,0.471-0.023
					c0.159-0.017,0.322-0.039,0.49-0.067c0.166-0.03,0.334-0.067,0.5-0.111c0.087-0.021,0.172-0.046,0.259-0.071
					c0.172-0.052,0.347-0.11,0.523-0.177l0.268-0.1c0.179-0.073,0.359-0.153,0.543-0.24c0.183-0.087,0.367-0.181,0.555-0.283
					c0.372-0.199,0.751-0.43,1.138-0.691l0.29-0.2c0.292-0.205,0.586-0.425,0.883-0.66c0.136-0.106,0.271-0.218,0.406-0.331
					c-0.533-0.494-1.064-1.026-1.593-1.595l-0.207,0.168l-0.218,0.17c-0.072,0.056-0.145,0.11-0.216,0.163
					c-0.144,0.106-0.286,0.209-0.427,0.306c-0.141,0.098-0.279,0.19-0.418,0.279c-0.138,0.088-0.273,0.172-0.408,0.251
					c-0.136,0.079-0.269,0.153-0.4,0.223c-0.066,0.034-0.13,0.069-0.2,0.101c-0.195,0.1-0.384,0.184-0.57,0.26
					c-0.231,0.097-0.47,0.179-0.713,0.245l-0.169,0.043c-0.209,0.051-0.422,0.084-0.637,0.1c-0.05,0-0.1,0-0.148,0.006
					c-0.095,0.001-0.189-0.004-0.283-0.014c-0.09-0.009-0.178-0.024-0.266-0.044c-0.083-0.02-0.165-0.045-0.245-0.076
					c-0.077-0.029-0.151-0.065-0.224-0.106c-0.161-0.095-0.306-0.214-0.429-0.354c-0.038-0.043-0.075-0.088-0.111-0.136
					s-0.072-0.1-0.107-0.155c-0.052-0.082-0.101-0.168-0.145-0.256c-0.028-0.055-0.054-0.113-0.08-0.171s-0.048-0.119-0.072-0.18
					c-0.023-0.062-0.045-0.129-0.066-0.2c-0.034-0.108-0.065-0.22-0.094-0.337c-0.045-0.192-0.082-0.4-0.112-0.613
					c-0.01-0.072-0.02-0.146-0.027-0.221v-0.031c-0.007-0.075-0.015-0.152-0.02-0.229c-0.019-0.234-0.026-0.48-0.026-0.737v-0.341
					c0-0.115,0.008-0.231,0.014-0.349c0.014-0.235,0.033-0.476,0.059-0.721c0.016-0.16,0.037-0.321,0.058-0.485
					c0.021-0.164,0.048-0.33,0.075-0.5c0.058-0.359,0.128-0.726,0.209-1.1c0.038-0.175,0.079-0.352,0.122-0.53
					c0.13-0.533,0.281-1.079,0.453-1.639l0.05-0.163c0.069-0.22,0.143-0.441,0.218-0.663c0.023-0.069,0.045-0.136,0.069-0.2
					l0.014-0.039c0.134-0.383,0.276-0.77,0.429-1.159l0.2-0.511c0.067-0.17,0.138-0.341,0.213-0.512
					c0.232-0.547,0.481-1.097,0.746-1.649c0.204-0.425,0.417-0.851,0.641-1.277C6.104,8.743,6.4,8.204,6.711,7.666
					C6.924,7.298,7.14,6.934,7.36,6.577c0.1-0.165,0.199-0.328,0.307-0.49C7.861,5.779,8.059,5.477,8.258,5.18l0.2-0.287
					c0.089-0.13,0.178-0.259,0.267-0.387c0.233-0.333,0.47-0.659,0.707-0.977C9.591,3.317,9.75,3.108,9.911,2.903
					c0.08-0.104,0.16-0.205,0.242-0.307l0.036-0.045c0.229-0.286,0.463-0.566,0.7-0.841L10.99,1.6l-0.174-0.187
					c-0.471-0.502-0.944-0.969-1.42-1.4C8.973,0.5,8.553,1.01,8.137,1.542"/>
			</defs>
			<clipPath id="SVGID_10_">
				<use xlink:href="#SVGID_9_"  overflow="visible"/>
			</clipPath>
			<g id="Group_18" clip-path="url(#SVGID_10_)">
				
					<linearGradient id="Rectangle_12_1_" gradientUnits="userSpaceOnUse" x1="-116.6401" y1="303.9696" x2="-116.6241" y2="303.9696" gradientTransform="matrix(10.974 0 0 -27.214 3598.9824 8285.8555)">
					<stop  offset="0" style="stop-color:#0060AF"/>
					<stop  offset="0.016" style="stop-color:#0060AF"/>
					<stop  offset="0.293" style="stop-color:#006DBC"/>
					<stop  offset="0.814" style="stop-color:#0092DF"/>
					<stop  offset="1" style="stop-color:#00A1ED"/>
				</linearGradient>
				<path id="Rectangle_12" fill="#000000" d="M0,0.008h10.974v27.214H0V0.008z"/>
			</g>
		</g>
	</g>
	<g id="Group_21" transform="translate(1.592 259.171)">
		<g id="Group_20">
			<path id="Path_10" fill="#000000" d="M35.483,20.413c-2.065,0-3.739-1.675-3.739-3.74s1.674-3.739,3.739-3.739
				s3.74,1.674,3.74,3.739c0,0.001,0,0.001,0,0.001C39.223,18.739,37.549,20.413,35.483,20.413
				C35.484,20.413,35.484,20.413,35.483,20.413"/>
		</g>
	</g>
	<g id="Group_25" transform="translate(29.108 268.207)">
		<g>
			<defs>
				<path id="SVGID_11_" d="M13.642,15.313l0.335-0.046L13.642,15.313 M1.803,12.977c0.4,0.062,0.809,0.118,1.226,0.166
					C2.614,13.095,2.206,13.039,1.803,12.977 M1.803,12.977l-0.324-0.051L1.803,12.977 M14.128,12.977l1.3-10.714
					c0.059,0.101,0.116,0.193,0.174,0.289c0.288,0.058,0.572,0.118,0.851,0.184c0.754,0.172,1.476,0.368,2.16,0.587
					c0.133,0.043,0.264,0.085,0.394,0.129c0.227,0.077,0.447,0.157,0.664,0.239l0.256,0.1c0.347,0.134,0.675,0.275,0.984,0.425
					c0.309,0.146,0.6,0.3,0.872,0.452c0.204,0.116,0.396,0.233,0.578,0.354c0.06,0.038,0.119,0.079,0.177,0.119
					c0.116,0.081,0.227,0.161,0.332,0.243s0.206,0.163,0.3,0.246s0.185,0.166,0.269,0.249c0.521,0.443,0.845,1.076,0.899,1.758
					c-0.025,0.512-0.224,0.998-0.562,1.381c-0.067,0.085-0.14,0.168-0.219,0.252c-0.059,0.062-0.121,0.126-0.188,0.188
					c-0.066,0.063-0.131,0.124-0.2,0.185c-0.143,0.124-0.297,0.247-0.463,0.368c-0.11,0.081-0.227,0.162-0.347,0.242l-0.14,0.089
					c-0.14,0.089-0.286,0.178-0.439,0.265l-0.207,0.115c-0.106,0.058-0.215,0.114-0.327,0.171c-0.162,0.081-0.328,0.161-0.5,0.24
					l-0.148,0.068c-0.216,0.096-0.44,0.19-0.674,0.283l-0.256,0.1c-0.284,0.108-0.577,0.211-0.877,0.31l-0.18,0.06
					c-0.513,0.164-1.046,0.314-1.601,0.453c-0.184,0.046-0.37,0.09-0.559,0.133c-0.168,0.039-0.338,0.077-0.511,0.113l-0.341,0.069
					l-0.024,0.005l-0.2,0.038l-0.031,0.006l-0.52,0.1l-0.377,0.062l-0.325,0.052c-0.4,0.061-0.809,0.116-1.225,0.166
					c-0.546,0.064-1.101,0.118-1.666,0.161l-0.347,0.025c-0.272,0.019-0.548,0.034-0.823,0.048l-0.257,0.011
					c-0.191,0.008-0.385,0.016-0.577,0.021c-0.419,0.012-0.842,0.018-1.268,0.018s-0.847-0.006-1.263-0.02
					c-0.194-0.006-0.386-0.013-0.578-0.021c-0.224-0.01-0.448-0.02-0.67-0.033c-0.254-0.015-0.507-0.031-0.757-0.052l-0.47-0.037
					c-0.269-0.024-0.536-0.051-0.8-0.079l-0.399-0.045c-0.414-0.05-0.822-0.105-1.224-0.166L1.476,12.93l-0.379-0.062
					c-0.175-0.031-0.347-0.063-0.52-0.101c-0.025,0.081-0.051,0.161-0.075,0.242c-0.2,0.662-0.369,1.308-0.5,1.93l0.254,0.049
					c0.267,0.05,0.533,0.097,0.801,0.142l0.407,0.065l0.493,0.071c0.111,0.017,0.222,0.031,0.334,0.045
					c0.267,0.036,0.533,0.069,0.8,0.101l0.367,0.038l0.101,0.01c0.712,0.07,1.437,0.124,2.173,0.16
					c0.229,0.011,0.459,0.02,0.689,0.028c0.488,0.017,0.979,0.024,1.476,0.024h0.136c0.277,0,0.555,0,0.83-0.008
					c0.215,0,0.429-0.01,0.643-0.017c0.229-0.008,0.458-0.017,0.687-0.028l0.439-0.023c0.439-0.025,0.873-0.059,1.301-0.1
					c0.178-0.016,0.354-0.033,0.531-0.051l0.322-0.034c0.282-0.03,0.563-0.064,0.842-0.101c0.112-0.014,0.225-0.029,0.335-0.045
					v-0.007v0.007c0.165-0.022,0.329-0.047,0.493-0.071c0.41-0.062,0.814-0.132,1.212-0.206l0.254-0.049
					c0.179-0.035,0.356-0.071,0.532-0.108c0.13-0.028,0.258-0.055,0.386-0.084l0.176-0.04c0.17-0.039,0.34-0.08,0.509-0.122
					c0.273-0.066,0.544-0.138,0.812-0.213c0.242-0.066,0.48-0.137,0.716-0.211l0.126-0.04c0.365-0.114,0.72-0.234,1.065-0.362
					c0.168-0.061,0.334-0.124,0.5-0.188c0.354-0.14,0.691-0.284,1.014-0.436c0.267-0.124,0.525-0.253,0.775-0.385
					s0.486-0.267,0.71-0.405c0.091-0.055,0.18-0.111,0.266-0.168c0.087-0.056,0.172-0.112,0.256-0.171
					c0.251-0.172,0.484-0.349,0.7-0.529c0.072-0.06,0.144-0.12,0.212-0.182c0.139-0.122,0.27-0.246,0.393-0.372
					c1.814-1.562,2.019-4.301,0.456-6.115c-0.141-0.163-0.293-0.315-0.456-0.456c-0.123-0.125-0.254-0.25-0.393-0.372
					c-0.068-0.061-0.14-0.12-0.212-0.182c-0.219-0.181-0.452-0.356-0.7-0.529c-0.083-0.057-0.168-0.113-0.256-0.171
					c-0.088-0.057-0.175-0.112-0.266-0.168c-0.226-0.139-0.463-0.273-0.71-0.405c-0.247-0.133-0.506-0.261-0.775-0.386
					c-0.322-0.149-0.66-0.294-1.014-0.434c-0.081-0.033-0.163-0.064-0.247-0.101c-0.084-0.035-0.166-0.062-0.25-0.093
					c-0.302-0.109-0.609-0.216-0.925-0.317l-0.139-0.044c-0.276-0.088-0.558-0.171-0.843-0.25c-0.212-0.06-0.426-0.116-0.642-0.172
					l-0.17-0.043c-0.169-0.042-0.339-0.082-0.509-0.121l-0.176-0.04L16.458,0.44c-0.176-0.037-0.354-0.073-0.532-0.108
					c-0.637-0.125-1.29-0.233-1.959-0.327c0.5,0.728,0.984,1.479,1.454,2.257"/>
			</defs>
			<clipPath id="SVGID_12_">
				<use xlink:href="#SVGID_11_"  overflow="visible"/>
			</clipPath>
			<g id="Group_24" clip-path="url(#SVGID_12_)">
				
					<linearGradient id="Rectangle_15_1_" gradientUnits="userSpaceOnUse" x1="-261.6427" y1="293.6171" x2="-261.6367" y2="293.6171" gradientTransform="matrix(26.588 0 0 -15.665 9295.9014 4607.3477)">
					<stop  offset="0" style="stop-color:#0060AF"/>
					<stop  offset="0.016" style="stop-color:#0060AF"/>
					<stop  offset="0.293" style="stop-color:#006DBC"/>
					<stop  offset="0.814" style="stop-color:#0092DF"/>
					<stop  offset="1" style="stop-color:#00A1ED"/>
				</linearGradient>
				<path id="Rectangle_15" fill="#000000" d="M0,0.008h26.588v15.665H0V0.008z"/>
			</g>
		</g>
	</g>
</g>
</svg>
