<svg xmlns="http://www.w3.org/2000/svg" width="279.571" height="68.87" viewBox="0 0 279.571 68.87">
  <g id="Group_339" data-name="Group 339" transform="translate(0 0)">
    <g id="Group_333" data-name="Group 333" transform="translate(92.296 3.784)">
      <g id="Group_326" data-name="Group 326" transform="translate(0 0.039)">
        <path id="Path_198" data-name="Path 198" d="M345.359,420.129a2.245,2.245,0,0,1-2.246-2.247V407.676H331.487v10.206a2.221,2.221,0,0,1-2.246,2.247,2.246,2.246,0,0,1-2.247-2.247V392.937a2.272,2.272,0,0,1,2.247-2.246,2.246,2.246,0,0,1,2.246,2.246v10.719h11.625V392.937a2.246,2.246,0,1,1,4.492,0v24.945A2.246,2.246,0,0,1,345.359,420.129Z" transform="translate(-326.994 -390.691)" fill="#fff"/>
      </g>
      <g id="Group_327" data-name="Group 327" transform="translate(28.184)">
        <path id="Path_199" data-name="Path 199" d="M421.741,420.063a2.159,2.159,0,0,1-2.167-1.774c-.394-1.655-.867-3.31-1.3-4.926H408.028c-.474,1.615-.907,3.271-1.3,4.926a2.109,2.109,0,0,1-2.089,1.774,2.166,2.166,0,0,1-2.167-2.72,164.588,164.588,0,0,1,7.842-24.354c.828-2.009,1.852-2.4,2.877-2.4.985,0,2.129.434,2.916,2.4a164.4,164.4,0,0,1,7.842,24.354A2.19,2.19,0,0,1,421.741,420.063Zm-8.59-22.344c-1.458,3.783-2.8,7.645-4.02,11.625h8.04C415.949,405.364,414.609,401.5,413.151,397.719Z" transform="translate(-402.4 -390.586)" fill="#fff"/>
      </g>
      <g id="Group_328" data-name="Group 328" transform="translate(57.379 0.039)">
        <path id="Path_200" data-name="Path 200" d="M495.8,419.774H482.638a2.12,2.12,0,0,1-2.129-2.128V392.937a2.272,2.272,0,0,1,2.247-2.246A2.246,2.246,0,0,1,485,392.937v22.581h10.8a2.128,2.128,0,1,1,0,4.256Z" transform="translate(-480.509 -390.691)" fill="#fff"/>
      </g>
      <g id="Group_329" data-name="Group 329" transform="translate(70.936 0.394)">
        <path id="Path_201" data-name="Path 201" d="M536.877,395.976h-6.7v22.5a2.246,2.246,0,0,1-2.246,2.247,2.221,2.221,0,0,1-2.246-2.247v-22.5h-6.738a2.161,2.161,0,0,1-2.168-2.168,2.187,2.187,0,0,1,2.168-2.167h17.93a2.161,2.161,0,0,1,2.167,2.167A2.137,2.137,0,0,1,536.877,395.976Z" transform="translate(-516.779 -391.641)" fill="#fff"/>
      </g>
      <g id="Group_330" data-name="Group 330" transform="translate(97.574 0.394)">
        <path id="Path_202" data-name="Path 202" d="M604.836,420.724a2.155,2.155,0,0,1-1.97-1.34,99.385,99.385,0,0,0-5.832-10.522h-4.492v9.615a2.221,2.221,0,0,1-2.246,2.247,2.246,2.246,0,0,1-2.247-2.247V393.887a2.271,2.271,0,0,1,2.247-2.246h7.487c6.226,0,9.1,3.074,9.1,7.763v1.655a7,7,0,0,1-5.123,6.975,97.86,97.86,0,0,1,5.2,9.5A2.24,2.24,0,0,1,604.836,420.724Zm-2.443-21.32c0-2.049-1.379-3.546-4.69-3.546h-5.161v8.907h5.044c3.113,0,4.807-1.577,4.807-3.7Z" transform="translate(-588.048 -391.641)" fill="#fff"/>
      </g>
      <g id="Group_331" data-name="Group 331" transform="translate(125.908 0.039)">
        <path id="Path_203" data-name="Path 203" d="M673.905,420.168c-7.527,0-10.049-5.32-10.049-10.679v-8.158c0-5.359,2.522-10.64,10.049-10.64s10.088,5.281,10.088,10.64v8.158C683.994,414.848,681.432,420.168,673.905,420.168Zm5.6-18.837c0-3.7-1.3-6.541-5.6-6.541s-5.557,2.8-5.557,6.541v8.158c0,3.743,1.3,6.581,5.557,6.581,4.3,0,5.6-2.838,5.6-6.581Z" transform="translate(-663.856 -390.691)" fill="#fff"/>
      </g>
      <g id="Group_332" data-name="Group 332" transform="translate(157.278 0.039)">
        <path id="Path_204" data-name="Path 204" d="M765.675,420.129a2.361,2.361,0,0,1-2.167-1.1l-11.586-19.034V418.08a2.035,2.035,0,0,1-2.049,2.049,2.069,2.069,0,0,1-2.088-2.049v-25.3a2.083,2.083,0,0,1,2.206-2.089,2.492,2.492,0,0,1,2.207,1.183l11.546,18.994V392.78a2.069,2.069,0,1,1,4.138,0v25.3A2.076,2.076,0,0,1,765.675,420.129Z" transform="translate(-747.785 -390.691)" fill="#fff"/>
      </g>
    </g>
    <g id="Group_334" data-name="Group 334" transform="translate(93.217 48.072)">
      <path id="Path_205" data-name="Path 205" d="M340.626,521.229c0,4.935-2.335,7.482-5.253,7.482a4.952,4.952,0,0,1-3.927-1.857v1.565h-1.99V510.192l1.99-1.115v7.111a5.571,5.571,0,0,1,4.192-1.99C338.423,514.2,340.626,516.32,340.626,521.229Zm-1.963.026c0-3.5-1.326-5.333-3.529-5.333a4.731,4.731,0,0,0-3.688,2.016v6.952a4.552,4.552,0,0,0,3.768,2.1C337.522,526.986,338.662,525,338.662,521.255Z" transform="translate(-329.456 -509.077)" fill="#fff"/>
      <path id="Path_206" data-name="Path 206" d="M371.193,510.723a1.41,1.41,0,0,1-1.38,1.406,1.42,1.42,0,1,1,1.38-1.406Zm-.425,17.829h-1.99V514.623h1.99Z" transform="translate(-353.815 -509.21)" fill="#fff"/>
      <path id="Path_207" data-name="Path 207" d="M394.565,523.122l-.5,2.017a3.935,3.935,0,0,0-2.1-.531c-1.937,0-3.025,1.565-3.025,4.218V537h-1.99V523.069h1.99v1.725a4.083,4.083,0,0,1,3.449-2.016A5.345,5.345,0,0,1,394.565,523.122Z" transform="translate(-365.461 -517.656)" fill="#fff"/>
      <path id="Path_208" data-name="Path 208" d="M445.015,537h-1.99v-8.145c0-3-1.061-4.351-3.29-4.351-1.937,0-3.449,1.3-3.449,4.351V537H434.3V523.069h1.99v1.7a4.5,4.5,0,0,1,3.847-1.99c2.945,0,4.882,1.725,4.882,5.731Z" transform="translate(-395.11 -517.656)" fill="#fff"/>
      <path id="Path_209" data-name="Path 209" d="M483.911,529.622a6.122,6.122,0,0,1-.08,1.088h-9.286c.186,2.972,1.592,4.855,3.874,4.855a6.2,6.2,0,0,0,3.847-1.327l.928,1.433a8.25,8.25,0,0,1-4.988,1.618c-2.547,0-5.651-1.857-5.651-7.323,0-4.431,2.441-7.19,5.757-7.19C481.948,522.777,483.911,525.642,483.911,529.622Zm-1.857-.531c-.159-2.706-1.327-4.59-3.768-4.59-2.07,0-3.5,1.486-3.741,4.59Z" transform="translate(-419.07 -517.656)" fill="#fff"/>
      <path id="Path_210" data-name="Path 210" d="M516.915,511.413a3.739,3.739,0,0,0-1.618-.319c-.823,0-1.433.292-1.433,1.459v2.07H516.6v1.671h-2.733v12.258h-1.99V516.294h-1.91v-1.671h1.91v-1.91c0-2.494,1.353-3.423,3.29-3.423a5.142,5.142,0,0,1,1.751.239Z" transform="translate(-442.496 -509.21)" fill="#fff"/>
      <path id="Path_211" data-name="Path 211" d="M545.6,529.622a6.088,6.088,0,0,1-.08,1.088h-9.286c.186,2.972,1.592,4.855,3.874,4.855a6.2,6.2,0,0,0,3.847-1.327l.929,1.433a8.252,8.252,0,0,1-4.988,1.618c-2.547,0-5.651-1.857-5.651-7.323,0-4.431,2.441-7.19,5.758-7.19C543.632,522.777,545.6,525.642,545.6,529.622Zm-1.857-.531c-.159-2.706-1.326-4.59-3.768-4.59-2.069,0-3.5,1.486-3.741,4.59Z" transform="translate(-457.698 -517.656)" fill="#fff"/>
      <path id="Path_212" data-name="Path 212" d="M580.694,533.363c0,2.733-2.361,3.926-4.775,3.926a7.812,7.812,0,0,1-4.908-1.777l1.167-1.459a5.722,5.722,0,0,0,3.794,1.539c1.911,0,2.813-.8,2.813-2.149,0-1.141-.823-1.778-3.29-2.839-2.786-1.194-3.953-2.043-3.953-4.271,0-2.123,1.831-3.555,4.351-3.555a6.855,6.855,0,0,1,4.458,1.486l-1.114,1.459a5.044,5.044,0,0,0-3.476-1.247c-1.459,0-2.308.716-2.308,1.725,0,1.167.716,1.645,3.078,2.706C579.155,530.1,580.694,530.869,580.694,533.363Z" transform="translate(-480.725 -517.656)" fill="#fff"/>
      <path id="Path_213" data-name="Path 213" d="M632.3,533.363c0,2.733-2.361,3.926-4.776,3.926a7.813,7.813,0,0,1-4.908-1.777l1.167-1.459a5.723,5.723,0,0,0,3.794,1.539c1.91,0,2.812-.8,2.812-2.149,0-1.141-.822-1.778-3.29-2.839-2.786-1.194-3.953-2.043-3.953-4.271,0-2.123,1.831-3.555,4.352-3.555a6.856,6.856,0,0,1,4.458,1.486l-1.115,1.459a5.043,5.043,0,0,0-3.476-1.247c-1.459,0-2.308.716-2.308,1.725,0,1.167.716,1.645,3.078,2.706C630.759,530.1,632.3,530.869,632.3,533.363Z" transform="translate(-513.041 -517.656)" fill="#fff"/>
      <path id="Path_214" data-name="Path 214" d="M660.947,537.487h-1.99V523.558h1.99Z" transform="translate(-535.8 -518.146)" fill="#fff"/>
      <path id="Path_215" data-name="Path 215" d="M687.137,528.418h-1.99v-8.145c0-3-1.061-4.351-3.29-4.351-1.937,0-3.449,1.3-3.449,4.351v8.145h-1.99V510.192l1.99-1.115v7.111a4.5,4.5,0,0,1,3.847-1.99c2.945,0,4.882,1.725,4.882,5.731Z" transform="translate(-546.735 -509.077)" fill="#fff"/>
      <path id="Path_216" data-name="Path 216" d="M727.384,528.418h-1.99v-8.145c0-3-1.061-4.351-3.29-4.351-1.937,0-3.449,1.3-3.449,4.351v8.145h-1.99V510.192l1.99-1.115v7.111a4.5,4.5,0,0,1,3.847-1.99c2.945,0,4.882,1.725,4.882,5.731Z" transform="translate(-571.938 -509.077)" fill="#fff"/>
      <path id="Path_217" data-name="Path 217" d="M765.51,537h-1.99v-1.7a5.742,5.742,0,0,1-4.351,1.99c-2.176,0-4.457-1.088-4.457-4.457,0-3.131,2.573-4.457,5.333-4.457a7.477,7.477,0,0,1,3.476.8v-1.645c0-2.07-.982-3.078-3.024-3.078a7.273,7.273,0,0,0-3.794,1.061l-.743-1.618a9.944,9.944,0,0,1,4.67-1.114c3,0,4.882,1.273,4.882,4.51Zm-1.99-3.423v-2.812a6.754,6.754,0,0,0-3.582-.8c-2.043,0-3.263.981-3.263,2.733,0,2.069,1.141,2.972,2.839,2.972A4.878,4.878,0,0,0,763.52,533.575Z" transform="translate(-595.765 -517.656)" fill="#fff"/>
      <path id="Path_218" data-name="Path 218" d="M799.211,516.161h-3.449v9.074c0,1.247.345,1.671,1.406,1.671a4.633,4.633,0,0,0,1.963-.4L799,528.233a6.276,6.276,0,0,1-2.574.478c-1.725,0-2.653-.849-2.653-3.157v-9.392h-1.725V514.49h1.725v-4.3l1.99-1.115v5.413h3.449Z" transform="translate(-619.146 -509.077)" fill="#fff"/>
      <path id="Path_219" data-name="Path 219" d="M822.347,554.128a1.727,1.727,0,0,1-1.7,1.7,1.71,1.71,0,0,1-1.7-1.7,1.757,1.757,0,0,1,1.7-1.751A1.775,1.775,0,0,1,822.347,554.128Z" transform="translate(-635.993 -536.193)" fill="#fff"/>
    </g>
    <g id="Group_335" data-name="Group 335" transform="translate(0)">
      <path id="Path_220" data-name="Path 220" d="M80.059,380.462v68.87H149.2v-68.87ZM122.822,417.9a152.3,152.3,0,0,0-4.11,27.23s-8,2.6-7.724-5.965a103.068,103.068,0,0,1,1.539-13.413c-11.557,9.706-17.166,17.721-17.166,17.721a8.627,8.627,0,0,1-1.845-4.966,9.721,9.721,0,0,1-.09-1.754c.367-11.356,4.93-30.417,9.859-42.432,2.327-5.671,6.758-6.369,10.3-5.213l.03-.111a.83.83,0,0,1-.087.322,170.735,170.735,0,0,0-11.308,36.547,98.505,98.505,0,0,1,12.289-10.087,172.224,172.224,0,0,1,7.645-25.087c2.635-6.478,7.656-7.275,11.67-5.954l.033-.126a.947.947,0,0,1-.1.368,190.307,190.307,0,0,0-8.7,24.335,48.368,48.368,0,0,1,6.179-2.812c5.652-1.94,6.429,2.423,6.429,2.423A141.906,141.906,0,0,0,122.822,417.9Z" transform="translate(-80.059 -380.462)" fill="#fff"/>
    </g>
  </g>
</svg>
